<svg width="20" height="20" viewBox="0 0 20 20" fill="none" xmlns="http://www.w3.org/2000/svg">
<path d="M10 18.3333C9.80558 18.3333 9.63891 18.2777 9.50002 18.1666C9.36113 18.0555 9.25697 17.9097 9.18752 17.7291C8.92363 16.9513 8.5903 16.2222 8.18752 15.5416C7.79863 14.8611 7.25002 14.0625 6.54169 13.1458C5.83335 12.2291 5.25697 11.3541 4.81252 10.5208C4.38196 9.68746 4.16669 8.68051 4.16669 7.49996C4.16669 5.87496 4.72919 4.49996 5.85419 3.37496C6.99308 2.23607 8.37502 1.66663 10 1.66663C11.625 1.66663 13 2.23607 14.125 3.37496C15.2639 4.49996 15.8334 5.87496 15.8334 7.49996C15.8334 8.76385 15.5903 9.8194 15.1042 10.6666C14.632 11.5 14.0834 12.3263 13.4584 13.1458C12.7084 14.1458 12.1389 14.9791 11.75 15.6458C11.375 16.2986 11.0625 16.993 10.8125 17.7291C10.7431 17.9236 10.632 18.0763 10.4792 18.1875C10.3403 18.2847 10.1806 18.3333 10 18.3333ZM10 15.3541C10.2361 14.8819 10.5 14.4166 10.7917 13.9583C11.0972 13.5 11.5417 12.8888 12.125 12.125C12.7222 11.3472 13.2084 10.6319 13.5834 9.97912C13.9722 9.31246 14.1667 8.48607 14.1667 7.49996C14.1667 6.34718 13.757 5.36801 12.9375 4.56246C12.132 3.74301 11.1528 3.33329 10 3.33329C8.84724 3.33329 7.86113 3.74301 7.04169 4.56246C6.23613 5.36801 5.83335 6.34718 5.83335 7.49996C5.83335 8.48607 6.02085 9.31246 6.39585 9.97912C6.78474 10.6319 7.2778 11.3472 7.87502 12.125C8.45835 12.8888 8.89585 13.5 9.18752 13.9583C9.49308 14.4166 9.76391 14.8819 10 15.3541ZM10 9.58329C10.5834 9.58329 11.0764 9.3819 11.4792 8.97913C11.882 8.57635 12.0834 8.08329 12.0834 7.49996C12.0834 6.91663 11.882 6.42357 11.4792 6.02079C11.0764 5.61801 10.5834 5.41663 10 5.41663C9.41669 5.41663 8.92363 5.61801 8.52085 6.02079C8.11808 6.42357 7.91669 6.91663 7.91669 7.49996C7.91669 8.08329 8.11808 8.57635 8.52085 8.97913C8.92363 9.3819 9.41669 9.58329 10 9.58329Z" fill="#1D1B20"/>
</svg>
