<svg width="25" height="24" viewBox="0 0 25 24" fill="none" xmlns="http://www.w3.org/2000/svg">
<path d="M12.8599 15.1746C8.54692 15.1746 4.86292 15.8546 4.86292 18.5746C4.86292 21.2956 8.52392 21.9996 12.8599 21.9996C17.1729 21.9996 20.8569 21.3206 20.8569 18.5996C20.8569 15.8786 17.1969 15.1746 12.8599 15.1746Z" fill="#F1F5F5"/>
<path d="M12.8599 15.1746C8.54692 15.1746 4.86292 15.8546 4.86292 18.5746C4.86292 21.2956 8.52392 21.9996 12.8599 21.9996C17.1729 21.9996 20.8569 21.3206 20.8569 18.5996C20.8569 15.8786 17.1969 15.1746 12.8599 15.1746" stroke="black"/>
<path d="M12.8599 12.5837C15.7979 12.5837 18.1519 10.2287 18.1519 7.29169C18.1519 4.35469 15.7979 1.99969 12.8599 1.99969C9.92287 1.99969 7.56787 4.35469 7.56787 7.29169C7.56787 10.2287 9.92287 12.5837 12.8599 12.5837Z" fill="#F1F5F5"/>
<path d="M12.8599 12.5837C15.7979 12.5837 18.1519 10.2287 18.1519 7.29169C18.1519 4.35469 15.7979 1.99969 12.8599 1.99969C9.92287 1.99969 7.56787 4.35469 7.56787 7.29169C7.56787 10.2287 9.92287 12.5837 12.8599 12.5837" stroke="black"/>
</svg>
