<svg xmlns="http://www.w3.org/2000/svg" version="1.1" xmlns:xlink="http://www.w3.org/1999/xlink" width="20" height="20" x="0" y="0" viewBox="0 0 62 62" style="enable-background:new 0 0 512 512" xml:space="preserve" class=""><g><path fill="#ccd1d9" d="M33 55v5c0 .55-.45 1-1 1h-3v-8h3c.55 0 1 .45 1 1z" opacity="1" data-original="#ccd1d9" class=""></path><path fill="#e6e9ed" d="m20 43 4.53 2.59c1.53.87 2.47 2.5 2.47 4.25a4.9 4.9 0 0 1-.52 2.19L26 53h-5v-6c0-2.07-1.57-3.77-3.59-3.98v-.03c.2 0 .39.01.59.01z" opacity="1" data-original="#e6e9ed"></path><path fill="#e6e9ed" d="M21 53h8v8H17c-2.21 0-4-1.79-4-4V47c0-1.1.45-2.1 1.17-2.83C14.9 43.45 15.9 43 17 43c.14 0 .27.01.41.02C19.43 43.23 21 44.93 21 47zM36.12 1.88C35.58 1.34 34.83 1 34 1h-3.76c-.79 0-1.56.32-2.12.88L28 2l-.12-.12c-.56-.56-1.33-.88-2.12-.88h-4.52c-.79 0-1.56.32-2.12.88L19 2l-.12-.12c-.56-.56-1.33-.88-2.12-.88h-4.52c-.79 0-1.56.32-2.12.88L10 2l-.12-.12C9.32 1.32 8.55 1 7.76 1H4a2.996 2.996 0 0 0-2.12 5.12c.31.31.69.56 1.12.7V17h32V6.82c1.17-.4 2-1.51 2-2.82 0-.83-.34-1.58-.88-2.12z" opacity="1" data-original="#e6e9ed"></path><path fill="#ccd1d9" d="M35 17v4H3v-4z" opacity="1" data-original="#ccd1d9" class=""></path><path fill="#aab2bd" d="M48 25c7.18 0 13 5.82 13 13s-5.82 13-13 13a12.927 12.927 0 0 1-8.17-2.89A12.96 12.96 0 0 1 35 38c0-7.18 5.82-13 13-13z" opacity="1" data-original="#aab2bd" class=""></path><path fill="#aab2bd" d="m43.29 50.12-2.42 4.18c-.28-.76-1.02-1.3-1.87-1.3h-1.99l2.82-4.89c1.03.84 2.2 1.52 3.46 2.01z" opacity="1" data-original="#aab2bd" class=""></path><circle cx="48" cy="38" r="9" fill="#ccd1d9" opacity="1" data-original="#ccd1d9" class=""></circle><path fill="#fcd770" d="M29 53h-3l.48-.97a4.9 4.9 0 0 0 .52-2.19c0-1.75-.94-3.38-2.47-4.25L20 43c6.08 0 11-4.92 11-11V21h4v17c0 4.08 1.88 7.73 4.83 10.11L37.01 53h-1.18c-.53 0-1.04.21-1.42.59L33 55v-1c0-.55-.45-1-1-1zM17.41 42.99v.03c-.14-.01-.27-.02-.41-.02-1.1 0-2.1.45-2.83 1.17C13.45 44.9 13 45.9 13 47v10c0 2.21 1.79 4 4 4H6l1.84-1.23C8.57 59.29 9 58.48 9 57.61c0-.99-.56-1.89-1.44-2.33l-.76-.38A3.26 3.26 0 0 1 5 51.99c0-.65.19-1.28.55-1.81l.98-1.48c.31-.46.47-.99.47-1.54 0-.74-.29-1.45-.82-1.98C4.14 43.14 3 40.38 3 37.5V21h4v11c0 5.88 4.61 10.68 10.41 10.99z" opacity="1" data-original="#fcd770" class=""></path><path fill="#f0d0b4" d="M39 53c.85 0 1.59.54 1.87 1.3.09.22.13.45.13.7v4c0 1.1-.9 2-2 2h-7c.55 0 1-.45 1-1v-5l1.41-1.41c.38-.38.89-.59 1.42-.59h1.18zM31 21v11c0 6.08-4.92 11-11 11h-2c-.2 0-.39-.01-.59-.01C11.61 42.68 7 37.88 7 32V21z" opacity="1" data-original="#f0d0b4"></path><path d="m23.896 34.473.052-.154-1.896-.638-.052.157C21.568 35.131 20.363 36 19 36s-2.568-.869-3-2.165l-.052-.154-1.896.638.052.151C14.807 36.582 16.774 38 19 38s4.193-1.418 4.896-3.527zM16 28h2c0-2.206-1.794-4-4-4s-4 1.794-4 4h2c0-1.103.897-2 2-2s2 .897 2 2zM24 26c1.103 0 2 .897 2 2h2c0-2.206-1.794-4-4-4s-4 1.794-4 4h2c0-1.103.897-2 2-2zM48 28c-5.514 0-10 4.486-10 10s4.486 10 10 10 10-4.486 10-10-4.486-10-10-10zm0 18c-4.411 0-8-3.589-8-8s3.589-8 8-8 8 3.589 8 8-3.589 8-8 8z" fill="#000000" opacity="1" data-original="#000000" class=""></path><path d="M48 24c-5.096 0-9.551 2.745-12 6.826V7.444c1.19-.694 2-1.97 2-3.444 0-2.206-1.794-4-4-4h-3.758A4.03 4.03 0 0 0 28 .689 4.032 4.032 0 0 0 25.758 0h-4.516A4.03 4.03 0 0 0 19 .689 4.032 4.032 0 0 0 16.758 0h-4.516A4.03 4.03 0 0 0 10 .689 4.032 4.032 0 0 0 7.758 0H4C1.794 0 0 1.794 0 4c0 1.474.81 2.75 2 3.444v30.055c0 3.17 1.234 6.15 3.476 8.392a1.784 1.784 0 0 1 .223 2.257l-.984 1.477A4.244 4.244 0 0 0 4 51.986c0 1.624.901 3.083 2.354 3.809l.761.38a1.6 1.6 0 0 1 .172 2.766l-1.842 1.228 1.109 1.664 1.842-1.228A3.596 3.596 0 0 0 10 57.608a3.584 3.584 0 0 0-1.991-3.222l-.761-.38A2.248 2.248 0 0 1 6 51.986c0-.447.131-.88.379-1.252l.984-1.476A3.784 3.784 0 0 0 8 47.155a3.766 3.766 0 0 0-1.11-2.679A9.8 9.8 0 0 1 4 37.499V22h2v10c0 5.126 3.237 9.5 7.77 11.216C12.696 44.133 12 45.48 12 47v10c0 2.757 2.243 5 5 5h22c1.654 0 3-1.346 3-3v-4c0-.189-.022-.373-.056-.553l1.802-3.112c1.342.429 2.771.665 4.254.665 7.72 0 14-6.28 14-14s-6.28-14-14-14zm-38-6v2H8v-2zm2 0h2v2h-2zm.242-10h4.516c.424 0 .843-.074 1.242-.205V16h-6V7.982c.081.005.161.018.242.018zM20 16V7.795c.399.131.818.205 1.242.205h4.516c.081 0 .161-.013.242-.018V16zm-4 2h2v2h-2zm4 0h2v2h-2zm4 0h2v2h-2zm4 0h2v2h-2zm4 0h2v2h-2zm2-2h-6V7.311A4.032 4.032 0 0 0 30.242 8H34zM4 2h3.758a2.01 2.01 0 0 1 1.414.586l.828.828.828-.828A2.01 2.01 0 0 1 12.242 2h4.516a2.01 2.01 0 0 1 1.414.586l.828.828.828-.828A2.01 2.01 0 0 1 21.242 2h4.516a2.01 2.01 0 0 1 1.414.586l.828.828.828-.828A2.01 2.01 0 0 1 30.242 2H34c1.103 0 2 .897 2 2s-.897 2-2 2h-3.758a2.01 2.01 0 0 1-1.414-.586L28 4.586l-.828.828A2.01 2.01 0 0 1 25.758 6h-4.516a2.01 2.01 0 0 1-1.414-.586L19 4.586l-.828.828A2.01 2.01 0 0 1 16.758 6h-4.516a2.01 2.01 0 0 1-1.414-.586L10 4.586l-.828.828A2.01 2.01 0 0 1 7.758 6H4c-1.103 0-2-.897-2-2s.897-2 2-2zm3.758 6A4.03 4.03 0 0 0 10 7.311V16H4V8zM4 20v-2h2v2zm4 12V22h22v10c0 5.514-4.486 10-10 10h-2c-5.514 0-10-4.486-10-10zm17.588 19.587-.206.413H22v-5c0-.683-.139-1.334-.388-1.927l2.423 1.385A3.906 3.906 0 0 1 26 49.843a3.92 3.92 0 0 1-.412 1.744zM14 57V47c0-1.654 1.346-3 3-3s3 1.346 3 3v5.586l-1.707 1.707 1.414 1.414L21.414 54H28v6H17c-1.654 0-3-1.346-3-3zm16 3v-6h2l.001 6zm3.676-7.09A2 2 0 0 0 32 52h-4.416c.269-.686.416-1.42.416-2.157a5.91 5.91 0 0 0-2.973-5.122l-1.976-1.129C28.193 42.237 32 37.561 32 32V22h2v16c0 4.082 1.767 7.75 4.564 10.312L36.429 52h-.6c-.801 0-1.555.312-2.121.879zM40 59c0 .551-.448 1-1 1h-5v-4.586l1.121-1.121a1.01 1.01 0 0 1 .707-.293H39c.552 0 1 .449 1 1zm.728-6.444A2.975 2.975 0 0 0 39 52h-.261l1.402-2.422c.55.374 1.134.698 1.736.993zM48 50c-6.617 0-12-5.383-12-12s5.383-12 12-12 12 5.383 12 12-5.383 12-12 12z" fill="#000000" opacity="1" data-original="#000000" class=""></path></g></svg>