<svg xmlns="http://www.w3.org/2000/svg" version="1.1" xmlns:xlink="http://www.w3.org/1999/xlink" width="145" height="145" x="0" y="0" viewBox="0 0 512.004 512.004" style="enable-background:new 0 0 512 512" xml:space="preserve" class=""><g><path d="M240.734 504.5c-1.46 0-2.943-.157-4.428-.485-11.034-2.435-18.004-13.353-15.57-24.387 4.678-21.201 4.51-39.277-.546-58.612-2.859-10.932 3.686-22.111 14.618-24.969 10.931-2.859 22.111 3.686 24.969 14.618 6.689 25.582 6.98 50.297.915 77.78-2.107 9.549-10.567 16.055-19.958 16.055zM302.09 504.5c-1.461 0-2.942-.157-4.428-.485-11.034-2.435-18.004-13.354-15.57-24.387 4.679-21.201 4.51-39.277-.545-58.611-2.859-10.931 3.685-22.111 14.617-24.969 10.93-2.859 22.111 3.685 24.969 14.617 6.69 25.582 6.981 50.297.916 77.781-2.107 9.548-10.569 16.054-19.959 16.054z" style="" fill="#eda751" data-original="#eda751" class=""></path><path d="M91.663 437.881c-2.684 0-5.389-.841-7.695-2.583-5.636-4.256-6.755-12.274-2.499-17.91 17.166-22.734 51.834-26.126 88.321-8.642 13.926 6.672 27.181 3.928 46.62-31.146 3.424-6.176 11.206-8.409 17.383-4.985 6.177 3.423 8.409 11.205 4.985 17.382-7.129 12.862-26.218 47.299-57.686 47.302-6.862 0-14.309-1.636-22.352-5.491-24.645-11.808-47.496-11.411-56.861.99a12.772 12.772 0 0 1-10.216 5.083z" style="" fill="#eda751" data-original="#eda751" class=""></path><path d="M93.415 406.307a46.529 46.529 0 0 0-11.947 11.082c-4.256 5.636-3.137 13.654 2.5 17.91a12.728 12.728 0 0 0 7.695 2.583c3.873 0 7.7-1.753 10.214-5.082 2.065-2.734 4.786-4.883 8.037-6.448-2.867-8.959-10.294-16.598-16.499-20.045z" style="" fill="#fcd79d" data-original="#fcd79d"></path><path d="M157.723 373.589c-19.406 0-40.89-4.287-59.107-19.118-8.762-7.134-10.082-20.02-2.948-28.783s20.021-10.082 28.783-2.948c20.031 16.31 53.234 8.483 69.191 4.722 10.998-2.593 22.015 4.222 24.606 15.219 2.592 10.998-4.221 22.014-15.219 24.607-10.063 2.372-26.734 6.301-45.306 6.301z" style="" fill="#eda751" data-original="#eda751" class=""></path><path d="m71.12 190.736-50.941 19.887c-4.811 1.878-7.014 7.448-4.789 12.109l24.222 50.747a8.827 8.827 0 0 0 11.175 4.42l6.083-2.375a4.697 4.697 0 0 1 6.163 2.885l25.681 76.777c2.872 8.585 12.227 13.441 20.744 10.372 8.811-3.175 13.006-13.147 9.199-21.636l-33.292-74.231a4.697 4.697 0 0 1 2.578-6.298l6.249-2.439a8.825 8.825 0 0 0 5.224-10.822l-16.567-53.735c-1.524-4.935-6.918-7.539-11.729-5.661z" style="" fill="#7694e4" data-original="#7694e4"></path><g style="opacity:0.1;"><path d="M54.316 260.705a7.502 7.502 0 0 1-6.921-4.604l-12.03-28.725a7.5 7.5 0 1 1 13.836-5.794l12.03 28.724a7.5 7.5 0 0 1-6.915 10.399zM74.864 252.683a7.5 7.5 0 0 1-7.051-4.946L57.199 218.46a7.5 7.5 0 0 1 4.495-9.607 7.5 7.5 0 0 1 9.607 4.495l10.613 29.277a7.5 7.5 0 0 1-7.05 10.058z" fill="#000000" opacity="1" data-original="#000000" class=""></path></g><path d="M374.296 381.306c-13.804 0-26.347-2.348-35.276-5.606-10.615-3.874-16.079-15.619-12.205-26.233 3.874-10.615 15.621-16.078 26.233-12.205 14.923 5.446 44.911 4.929 60.096-10.256 7.99-7.99 20.943-7.99 28.933 0 7.99 7.99 7.99 20.943 0 28.933-19.032 19.033-45.106 25.367-67.781 25.367z" style="" fill="#eda751" data-original="#eda751" class=""></path><path d="M493.911 258.718c7.193-20.212 3.596-45.302-10.118-50.182-13.714-4.88-32.353 12.296-39.546 32.508-3.533 9.926-2.183 20.245 2.759 27.722 1.182 1.789 1.427 4.035.609 6.017l-31.758 76.974c-3.453 8.369.437 18.165 8.883 21.423 8.738 3.371 18.439-1.416 21.122-10.325l24.123-80.111c.618-2.053 2.227-3.64 4.273-4.28 8.556-2.673 16.121-9.819 19.653-19.746z" style="" fill="#78cfc0" data-original="#78cfc0" class=""></path><path d="M384.244 339.703c-11.673 1.595-23.459.382-31.196-2.441-10.612-3.873-22.359 1.591-26.233 12.205-3.874 10.614 1.591 22.359 12.205 26.233 8.928 3.258 21.472 5.606 35.276 5.606 2.979 0 6.017-.113 9.089-.346a101.05 101.05 0 0 0 2.576-22.68 101.118 101.118 0 0 0-1.717-18.577zM233.791 372.615c-6.176-3.424-13.959-1.191-17.383 4.985-18.153 32.754-30.914 37.311-43.863 32.337 5.566 9.475 12.611 18.077 20.843 25.527 24.196-7.269 39.242-34.377 45.388-45.466 3.424-6.178 1.192-13.96-4.985-17.383zM193.64 327.462c-7.738 1.824-19.533 4.597-31.913 5.117a100.992 100.992 0 0 0-2.156 40.986c17.824-.248 33.731-3.984 43.457-6.277 10.998-2.592 17.812-13.609 15.219-24.607-2.592-10.998-13.609-17.813-24.607-15.219z" style="opacity:0.2;enable-background:new ;" fill="#c18f00" data-original="#c18f00"></path><ellipse cx="272.182" cy="358.28" rx="94.36" ry="87.69" style="" fill="#fcd690" data-original="#fcd690" class=""></ellipse><path d="M258.405 445.032c-43.121-28.311-29.757-86.336-22.437-111.711v-56.029c-34.14 13.198-58.146 44.486-58.146 80.989-.001 44.076 35 80.552 80.583 86.751z" style="opacity:0.15;enable-background:new ;" fill="#c17a00" data-original="#c17a00" class=""></path><path d="M326.495 452.509c3.193-16.399 4.533-47.912-6.798-92.944-.985-3.915-4.527-6.648-8.565-6.648h-77.896c-4.037 0-7.58 2.733-8.565 6.648-11.331 45.032-9.991 76.545-6.798 92.944 1.32 6.78 7.208 11.696 14.115 11.696h80.391c6.908.001 12.796-4.915 14.116-11.696z" style="" fill="#82c7e6" data-original="#82c7e6" class=""></path><path d="M326.495 452.509c1.716-8.812 2.893-21.996 1.86-39.289-13.658 1.972-34.611 3.781-56.171 3.781s-42.513-1.81-56.171-3.781c-1.033 17.294.144 30.477 1.86 39.289 1.32 6.78 7.208 11.696 14.115 11.696h80.391c6.908.001 12.796-4.915 14.116-11.696z" style="opacity:0.1;enable-background:new ;" fill="#000000" opacity="1" data-original="#000000" class=""></path><path d="M214.758 206.236c18.465-15.494 30.793-41.503 4.748-79.953-26.25-38.753-65.333-48.467-95.845-44.872a19.08 19.08 0 0 0-16.013 13.437c-8.838 29.424-6.059 69.6 27.547 102.181 33.343 32.325 61.099 24.701 79.563 9.207z" style="" fill="#eda751" data-original="#eda751" class=""></path><path d="M106.42 99.35c-7.246 28.93-3.149 66.728 28.775 97.679 28.9 28.019 53.598 26.017 71.691 14.898-12.443-84.475-66.802-106.876-100.466-112.577z" style="" fill="#ff91ab" data-original="#ff91ab"></path><path d="M329.61 206.236c-18.465-15.494-30.793-41.503-4.749-79.953 26.25-38.753 65.333-48.467 95.845-44.872a19.08 19.08 0 0 1 16.013 13.437c8.838 29.424 6.059 69.6-27.547 102.181-33.342 32.325-61.097 24.701-79.562 9.207z" style="" fill="#eda751" data-original="#eda751" class=""></path><path d="M437.948 99.35c7.246 28.93 3.149 66.728-28.775 97.679-28.9 28.019-53.598 26.017-71.691 14.898 12.444-84.475 66.803-106.876 100.466-112.577z" style="" fill="#ff91ab" data-original="#ff91ab"></path><path d="M432.837 229.621c0 73.455-71.927 105.627-160.652 105.627s-160.653-32.172-160.653-105.627S183.459 96.62 272.184 96.62s160.653 59.546 160.653 133.001z" style="" fill="#ffdc9c" data-original="#ffdc9c" class=""></path><path d="M186.404 117.154c-44.992 23.57-74.872 65.127-74.872 112.467 0 63.144 53.152 95.781 124.435 103.7-102.325-61.122-88.98-143.337-49.563-216.167z" style="opacity:0.15;enable-background:new ;" fill="#c17a00" data-original="#c17a00" class=""></path><ellipse cx="193.352" cy="232.72" rx="29.09" ry="23.16" style="" fill="#ff91ab" data-original="#ff91ab"></ellipse><ellipse cx="351.022" cy="232.72" rx="29.09" ry="23.16" style="" fill="#ff91ab" data-original="#ff91ab"></ellipse><path d="M383.964 60.614c0-22.838-20.811-41.351-46.482-41.351-7.297 0-14.199 1.498-20.342 4.165-3.517 1.527-7.58.59-10.298-2.116-8.51-8.474-20.88-13.812-34.658-13.812-13.778 0-26.148 5.338-34.657 13.811-2.717 2.706-6.78 3.643-10.298 2.116-6.144-2.667-13.046-4.165-20.342-4.165-25.671 0-46.482 18.514-46.482 41.351 0 18.787 14.085 34.643 33.371 39.678 3.409.89 5.759 4.012 5.759 7.535v32.643h145.299v-32.643c0-3.523 2.35-6.645 5.759-7.535 19.287-5.034 33.371-20.89 33.371-39.677z" style="" fill="#dee2e5" data-original="#dee2e5"></path><g style="opacity:0.1;"><path d="M246.413 147.604a7.5 7.5 0 0 1-7.5-7.5v-35.455a7.5 7.5 0 0 1 15 0v35.455a7.5 7.5 0 0 1-7.5 7.5zM297.956 147.604a7.5 7.5 0 0 1-7.5-7.5v-35.455a7.5 7.5 0 0 1 15 0v35.455a7.5 7.5 0 0 1-7.5 7.5z" fill="#000000" opacity="1" data-original="#000000" class=""></path></g><path d="M344.834 122.376s-16.936 10.121-72.65 10.121c-55.713 0-72.65-10.121-72.65-10.121v19.868a9.057 9.057 0 0 0 6.187 8.605c9.022 2.998 28.954 7.585 66.462 7.585s57.441-4.588 66.463-7.585c3.703-1.23 6.187-4.703 6.187-8.605v-19.868h.001z" style="" fill="#7694e4" data-original="#7694e4"></path><path d="M486.308 201.47c-9.102-3.239-19.613-.323-29.604 8.207-6.551 5.595-12.293 13.177-16.391 21.484.007-.514.023-1.024.023-1.54 0-16.077-3.28-31.884-9.584-46.819 17.622-26.602 22.438-59.192 13.151-90.112a26.536 26.536 0 0 0-22.319-18.728 109.272 109.272 0 0 0-32.559 1.066c1.582-4.593 2.438-9.44 2.438-14.414 0-26.937-24.216-48.852-53.982-48.852-8.164 0-16.013 1.61-23.329 4.785-.61.264-1.422.044-2.019-.551C301.924 5.831 287.364 0 272.185 0c-15.18 0-29.741 5.831-39.95 15.997-.597.594-1.409.815-2.019.551-7.315-3.175-15.164-4.785-23.329-4.785-29.766 0-53.982 21.914-53.982 48.852 0 4.974.856 9.821 2.438 14.414a109.267 109.267 0 0 0-32.558-1.066 26.535 26.535 0 0 0-22.319 18.728c-9.288 30.919-4.472 63.51 13.15 90.112-6.303 14.935-9.584 30.742-9.584 46.819 0 4.171.24 8.235.671 12.212l-14.689-47.646a16.44 16.44 0 0 0-8.537-9.93 16.436 16.436 0 0 0-13.085-.507l-50.941 19.887a16.44 16.44 0 0 0-9.28 9.24 16.44 16.44 0 0 0 .45 13.086l24.222 50.747c3.665 7.678 12.745 11.27 20.671 8.175l3.339-1.304L81.6 357.566c2.048 6.12 6.551 11.243 12.354 14.054 3.255 1.577 6.731 2.371 10.212 2.371a23.07 23.07 0 0 0 8.961-1.816c13.068 5.911 28.044 8.915 44.595 8.915 4.996 0 10.086-.28 15.386-.817 2.122 8.279 5.426 16.247 9.781 23.687-2.969.511-6.056-.154-9.859-1.976-39.848-19.094-78.136-14.82-97.547 10.887-3.266 4.324-4.651 9.662-3.902 15.029s3.544 10.121 7.868 13.386a20.116 20.116 0 0 0 12.215 4.098c6.331 0 12.387-3.014 16.199-8.063 7.043-9.326 26.631-8.81 47.635 1.254 8.625 4.132 17.236 6.228 25.594 6.227 9.475-.001 18.631-2.664 27.322-7.916.354 5.814 1.025 11.547 2.099 17.059a21.911 21.911 0 0 0 5.235 10.477 141.292 141.292 0 0 1-2.335 13.593c-3.321 15.054 6.224 30.004 21.278 33.327 1.988.439 4.022.661 6.044.661 13.003 0 24.477-9.227 27.283-21.939a199 199 0 0 0 3.17-18.355h4.831a153.603 153.603 0 0 1-1.248 6.306c-3.322 15.054 6.223 30.005 21.278 33.328a28.15 28.15 0 0 0 6.043.661c13.003 0 24.477-9.226 27.283-21.938 2.765-12.529 4.219-24.321 4.46-36.02.007-.034.017-.066.024-.1.999-5.133 1.964-12.301 2.283-21.583 15.146-11.445 26.364-26.704 32.519-43.681 1.889.084 3.772.127 5.637.127 16.626 0 32.51-3.212 46.232-9.3.498.234.995.472 1.513.672a23.555 23.555 0 0 0 8.474 1.574c3.554 0 7.101-.8 10.342-2.386a23.6 23.6 0 0 0 12.187-14.348l23.957-79.557c10.903-3.593 19.843-12.613 23.977-24.228 8.146-22.901 4.125-53.076-14.672-59.766zm-63.551-34.476a135.57 135.57 0 0 0-8.359-12.419c-7.272-9.607-15.881-18.393-25.594-26.203 14.634-11.428 30.478-17.254 43.313-20.21 2.42 14.379 2.759 36.284-9.36 58.832zm-2.927-78.135a11.536 11.536 0 0 1 8.119 4.871c-15.347 3.633-34.391 10.929-51.685 25.503-6.885-4.534-14.209-8.613-21.895-12.213 8.841-2.632 16.575-7.264 22.665-13.231 17.048-6.196 32.626-6.126 42.796-4.93zM206.887 26.763c6.098 0 11.938 1.192 17.356 3.544 6.295 2.732 13.587 1.287 18.576-3.682C250.238 19.237 260.941 15 272.185 15c11.242 0 21.945 4.237 29.365 11.626 4.99 4.97 12.282 6.414 18.576 3.682 5.419-2.352 11.259-3.544 17.357-3.544 21.495 0 38.982 15.185 38.982 33.852 0 14.821-11.417 28.153-27.766 32.421-6.691 1.747-11.364 7.829-11.364 14.792v9.589c-7.396 2.599-26.599 7.582-65.15 7.582s-57.753-4.984-65.149-7.583V107.829c0-6.962-4.673-13.045-11.364-14.792-16.348-4.268-27.766-17.6-27.766-32.421-.002-18.668 17.486-33.853 38.981-33.853zm130.447 106.416v9.065c0 .68-.423 1.278-1.052 1.487-8.095 2.69-27.188 7.203-64.098 7.203-36.911 0-56.002-4.513-64.097-7.203a1.555 1.555 0 0 1-1.052-1.487v-9.064c11.061 3.153 31.217 6.818 65.149 6.818s54.089-3.665 65.15-6.819zm-212.795-44.32c10.17-1.2 25.749-1.267 42.796 4.928 6.09 5.967 13.824 10.599 22.665 13.231-7.686 3.6-15.01 7.679-21.895 12.213-17.294-14.573-36.338-21.87-51.685-25.503a11.542 11.542 0 0 1 8.119-4.869zm-12.287 19.302c12.835 2.956 28.679 8.782 43.312 20.21-9.712 7.81-18.321 16.596-25.593 26.203a135.503 135.503 0 0 0-8.359 12.419c-12.119-22.548-11.78-44.452-9.36-58.832zm-.373 245.653a8.426 8.426 0 0 1-3.002 3.673c-.123.08-.245.162-.364.25a8.702 8.702 0 0 1-1.6.767c-2.081.75-4.362.614-6.421-.383a9.159 9.159 0 0 1-4.667-5.312L70.144 276.03a12.253 12.253 0 0 0-6.396-7.177 12.209 12.209 0 0 0-5.175-1.146c-1.505 0-3.011.276-4.431.831l-6.083 2.375a1.333 1.333 0 0 1-1.679-.664l-24.222-50.747a1.354 1.354 0 0 1-.038-1.109c.102-.257.32-.601.786-.783l50.941-19.887a1.358 1.358 0 0 1 1.109.043c.248.12.576.364.724.841l16.567 53.735a1.33 1.33 0 0 1-.785 1.626l-6.249 2.439a12.246 12.246 0 0 0-6.852 6.741 12.252 12.252 0 0 0 .159 9.612l21.894 48.816.02.044 11.379 25.371a8.443 8.443 0 0 1 .066 6.823zm58.745 11.624c-4.442.422-8.721.651-12.902.651-11.947 0-22.863-1.758-32.583-5.225.192-.39.375-.785.546-1.186a23.595 23.595 0 0 0-.187-18.824l-5.372-11.978c9.464 7.528 21.848 11.277 37.512 11.277 4.621 0 9.538-.337 14.739-.988a89.499 89.499 0 0 0-2.056 19.116c0 2.396.109 4.782.303 7.157zm10.465 64.361c-6.097.001-12.526-1.599-19.111-4.754-28.39-13.602-54.331-12.334-66.087 3.234a5.254 5.254 0 0 1-4.229 2.102 5.23 5.23 0 0 1-3.176-1.069 5.25 5.25 0 0 1-2.05-3.488 5.252 5.252 0 0 1 1.017-3.916c14.921-19.762 45.968-22.272 79.095-6.398 9.043 4.334 17.387 4.748 25.326 1.256a97.496 97.496 0 0 0 7.48 8.029c-5.94 3.32-12.055 5.004-18.265 5.004zm36.31-72.063c-2.723 10.82-7.418 32.122-8.862 55.14a81.394 81.394 0 0 1-8.256-9.525 7.71 7.71 0 0 0-.435-.679 7.536 7.536 0 0 0-.545-.665c-6.544-9.254-10.921-19.688-12.85-30.747-.01-.094-.012-.188-.025-.283a7.678 7.678 0 0 0-.167-.828 75.595 75.595 0 0 1-.936-11.869 74.16 74.16 0 0 1 4.507-25.541l.022-.06c.115-.314.226-.628.345-.941 4.599 1.41 9.352 2.69 14.255 3.835 5.205 6.902 10.738 13.336 14.751 17.822a16.18 16.18 0 0 0-1.804 4.341zm-52.159-52.582a7.5 7.5 0 1 0-7.296 13.106 148.709 148.709 0 0 0 12.23 6.065c-18.581 2.299-32.067-.135-40.99-7.401a27.81 27.81 0 0 0-17.231-6.271L93.411 269.31l3.505-1.369c5.529-2.158 9.257-7.091 10.161-12.636 3.753 15.117 10.967 28.602 21.625 40.263a7.48 7.48 0 0 0 5.538 2.44 7.5 7.5 0 0 0 5.535-12.56c-13.764-15.06-20.743-33.843-20.743-55.828 0-15.298 3.363-30.122 9.631-43.918a7.53 7.53 0 0 0 .556-1.204c8.843-18.867 23.166-35.754 41.897-49.191.475-.26.926-.578 1.346-.949 6.085-4.265 12.621-8.168 19.573-11.665v19.551c0 7.153 4.55 13.471 11.322 15.722 10.939 3.635 31.759 7.969 68.828 7.969 37.067 0 57.889-4.334 68.828-7.969a16.533 16.533 0 0 0 11.322-15.722v-19.551c6.952 3.497 13.488 7.401 19.573 11.666.42.37.87.688 1.345.948 18.732 13.438 33.055 30.325 41.898 49.193.147.414.334.815.554 1.2 6.269 13.797 9.633 28.622 9.633 43.921 0 31.987-14.594 56.853-43.377 73.906-7.756 4.595-16.461 8.558-26.004 11.874-.072.024-.143.047-.214.073-6.75 2.336-13.916 4.351-21.471 6.03-.232.04-.463.09-.691.152-18.376 4.022-39.007 6.091-61.395 6.091-43.414.001-80.395-7.812-106.946-22.593zm151.932 34.621a304 304 0 0 1-5.046 5.685c-.33-.02-.659-.042-.993-.042h-77.896c-.334 0-.664.022-.993.042a300.45 300.45 0 0 1-5.046-5.685c14.115 1.969 29.169 2.972 44.988 2.972 15.837.001 30.882-1.006 44.986-2.972zm-63.803 147.054c-1.301 5.894-6.615 10.171-12.635 10.171a13.06 13.06 0 0 1-2.812-.309c-6.977-1.54-11.401-8.47-9.862-15.447a163.825 163.825 0 0 0 1.835-9.645c.691.067 1.389.107 2.094.107h24.053a185.284 185.284 0 0 1-2.673 15.123zm61.356 0C313.424 492.723 308.11 497 302.09 497c-.937 0-1.884-.104-2.812-.309-6.978-1.54-11.401-8.47-9.862-15.448.724-3.28 1.315-6.434 1.811-9.538h21.153c1.759 0 3.472-.229 5.124-.63a183.736 183.736 0 0 1-2.779 15.754zm41.618-108.544a7.397 7.397 0 0 0-.31 1.105c-3.651 12.485-10.535 23.933-20.186 33.471-.15-2.504-.339-5.093-.586-7.791-.377-4.125-4.027-7.168-8.15-6.787a7.499 7.499 0 0 0-6.787 8.15c2.083 22.823.148 37.767-1.191 44.643-.635 3.263-3.476 5.63-6.753 5.63h-80.391c-3.278 0-6.119-2.368-6.753-5.63-2.08-10.681-5.59-40.801 6.71-89.68.143-.566.686-.978 1.291-.978h77.896c.615 0 1.146.402 1.291.978.946 3.761 1.83 7.538 2.625 11.226a7.5 7.5 0 0 0 14.663-3.163 359.731 359.731 0 0 0-2.741-11.723 16.28 16.28 0 0 0-1.802-4.339c4.013-4.485 9.543-10.918 14.747-17.817a215.85 215.85 0 0 0 14.26-3.836 74.554 74.554 0 0 1 2.898 9.453c.044.241.099.478.165.711a74.454 74.454 0 0 1 1.81 16.373 75.154 75.154 0 0 1-2.706 20.004zm52.714-10.677c.046.106.104.203.151.308-13.026 4.766-25.809 5.889-34.911 5.889-.543 0-1.091-.011-1.638-.019a88.165 88.165 0 0 0 1.389-15.507c0-3.494-.202-6.956-.598-10.383l.072.001c13.465 0 29.245-3.141 40.748-11.957l-5.345 12.956c-2.461 5.966-2.413 12.786.132 18.712zm-1.215-45.906c-8.698 8.698-24.263 11.752-37.477 11.127a89.85 89.85 0 0 0-2.03-6.043c7.638-3.036 14.748-6.488 21.271-10.353 23.291-13.799 38.864-32.705 46.088-55.582.917 4.135 2.508 8.071 4.768 11.608l-17.084 41.408c-5.842.893-11.317 3.615-15.536 7.835zm79.004-65.498c-2.625 7.376-8.167 13.022-14.824 15.102-4.44 1.388-7.886 4.856-9.217 9.276l-24.124 80.111a8.435 8.435 0 0 1-4.417 5.199 8.443 8.443 0 0 1-6.824.291 7.997 7.997 0 0 1-1.91-1.064c-.1-.078-.198-.159-.302-.231a8.418 8.418 0 0 1-2.389-3.199 9.164 9.164 0 0 1-.048-7.071l31.757-76.973c1.761-4.267 1.28-9.132-1.286-13.015-3.846-5.817-4.575-13.694-1.95-21.071 3.058-8.593 8.715-16.995 15.132-22.475 4.455-3.804 8.894-5.876 12.395-5.876.876 0 1.694.13 2.438.395 9.403 3.345 10.946 25.491 5.569 40.601zm-296.551-13.821c-9.161 2.433-26.444 11.114-33.155 16.067a7.5 7.5 0 0 0 4.46 13.534 7.467 7.467 0 0 0 4.448-1.466c5.279-3.897 20.985-11.749 28.096-13.637a7.5 7.5 0 0 0-3.849-14.498zm-4.963-6.992a7.495 7.495 0 0 0 8.418-6.453 7.502 7.502 0 0 0-6.453-8.419c-9.398-1.241-28.685.199-36.776 2.222a7.5 7.5 0 1 0 3.638 14.552c6.366-1.591 23.879-2.867 31.173-1.902zm108.821-20.397a7.5 7.5 0 0 0-.726-10.581 7.499 7.499 0 0 0-10.582.726c-2.692 3.089-6.578 4.86-10.661 4.86s-7.969-1.771-10.66-4.86a7.5 7.5 0 1 0-11.308 9.855 29.14 29.14 0 0 0 21.969 10.005c8.42 0 16.426-3.646 21.968-10.005zm25.633.493a7.5 7.5 0 0 0 7.5-7.5c0-3.738 3.041-6.779 6.779-6.779s6.779 3.041 6.779 6.779a7.5 7.5 0 0 0 15 0c0-12.009-9.77-21.779-21.779-21.779s-21.779 9.77-21.779 21.779a7.5 7.5 0 0 0 7.5 7.5zm-109.483-29.278c-12.009 0-21.779 9.77-21.779 21.779a7.5 7.5 0 0 0 15 0c0-3.738 3.041-6.779 6.779-6.779s6.779 3.041 6.779 6.779a7.5 7.5 0 0 0 15 0c.001-12.009-9.769-21.779-21.779-21.779zm176.925 72.241c-6.711-4.953-23.994-13.634-33.155-16.067a7.5 7.5 0 0 0-3.85 14.498c7.111 1.888 22.817 9.74 28.097 13.637a7.467 7.467 0 0 0 4.448 1.466 7.5 7.5 0 0 0 4.46-13.534zm-36.609-29.512a7.5 7.5 0 0 0 8.418 6.453c7.291-.964 24.806.311 31.173 1.903.61.153 1.222.226 1.825.226a7.5 7.5 0 0 0 1.813-14.778c-8.091-2.023-27.378-3.462-36.776-2.222a7.5 7.5 0 0 0-6.453 8.418z" fill="#000000" opacity="1" data-original="#000000" class=""></path></g></svg>
